<svg width="216" height="75" viewBox="0 0 216 75" fill="none" xmlns="http://www.w3.org/2000/svg">
<path d="M63.0367 47L87.0967 8L88.1767 10.16H65.7367V5H95.0167L70.8367 44L69.8167 41.84H94.7167V47H63.0367ZM100.226 47V5H125.846V10.16H105.926V22.46H121.766V27.62H105.926V41.84H126.386V47H100.226ZM156.129 35.66H138.129V30.5H156.129V35.66ZM146.289 10.58H147.969L135.069 47H129.069L144.129 5H150.129L165.189 47H159.189L146.289 10.58ZM193.102 35.66H175.102V30.5H193.102V35.66ZM183.262 10.58H184.942L172.042 47H166.042L181.102 5H187.102L202.162 47H196.162L183.262 10.58Z" fill="#0B1A50"/>
<path d="M9.77355 61.554C9.66022 61.554 9.56689 61.5174 9.49355 61.444C9.42689 61.3707 9.39022 61.2874 9.38355 61.194C9.37689 61.094 9.40355 61.004 9.46355 60.924L14.6336 54.444H9.81355C9.69355 54.444 9.60022 54.414 9.53355 54.354C9.46689 54.294 9.43355 54.2107 9.43355 54.104C9.43355 54.004 9.47022 53.9207 9.54355 53.854C9.61689 53.7807 9.71022 53.744 9.82355 53.744H15.2436C15.3636 53.744 15.4569 53.7807 15.5236 53.854C15.5902 53.9274 15.6269 54.014 15.6336 54.114C15.6469 54.2074 15.6236 54.2874 15.5636 54.354L10.3736 60.854H15.2436C15.3502 60.854 15.4402 60.8874 15.5136 60.954C15.5936 61.014 15.6336 61.0974 15.6336 61.204C15.6336 61.304 15.5936 61.3874 15.5136 61.454C15.4402 61.5207 15.3502 61.554 15.2436 61.554H9.77355ZM18.6114 61.604C18.0714 61.604 17.5914 61.4874 17.1714 61.254C16.7581 61.014 16.4314 60.684 16.1914 60.264C15.9581 59.844 15.8414 59.364 15.8414 58.824C15.8414 58.2774 15.9514 57.7974 16.1714 57.384C16.3981 56.964 16.7081 56.634 17.1014 56.394C17.4948 56.154 17.9481 56.034 18.4614 56.034C18.9681 56.034 19.4081 56.1507 19.7814 56.384C20.1614 56.6107 20.4548 56.9274 20.6614 57.334C20.8681 57.7407 20.9714 58.204 20.9714 58.724C20.9714 58.8307 20.9381 58.9174 20.8714 58.984C20.8048 59.044 20.7181 59.074 20.6114 59.074H16.3614V58.434H20.6914L20.2614 58.744C20.2681 58.3574 20.1981 58.0107 20.0514 57.704C19.9048 57.3974 19.6948 57.1574 19.4214 56.984C19.1548 56.8107 18.8348 56.724 18.4614 56.724C18.0814 56.724 17.7481 56.814 17.4614 56.994C17.1748 57.174 16.9514 57.424 16.7914 57.744C16.6381 58.0574 16.5614 58.4174 16.5614 58.824C16.5614 59.2307 16.6481 59.5907 16.8214 59.904C17.0014 60.2174 17.2448 60.464 17.5514 60.644C17.8581 60.824 18.2114 60.914 18.6114 60.914C18.8514 60.914 19.0914 60.874 19.3314 60.794C19.5781 60.7074 19.7748 60.6007 19.9214 60.474C19.9948 60.414 20.0781 60.384 20.1714 60.384C20.2648 60.3774 20.3448 60.4007 20.4114 60.454C20.4981 60.534 20.5414 60.6207 20.5414 60.714C20.5481 60.8074 20.5114 60.8874 20.4314 60.954C20.2114 61.1407 19.9314 61.2974 19.5914 61.424C19.2514 61.544 18.9248 61.604 18.6114 61.604ZM22.594 58.184C22.614 57.7707 22.7207 57.4007 22.914 57.074C23.114 56.7474 23.3707 56.4907 23.684 56.304C24.004 56.1174 24.3574 56.024 24.744 56.024C25.0507 56.024 25.2874 56.0674 25.454 56.154C25.6207 56.2407 25.684 56.3674 25.644 56.534C25.6174 56.634 25.5707 56.7007 25.504 56.734C25.444 56.7674 25.3674 56.7807 25.274 56.774C25.1874 56.7674 25.0874 56.7607 24.974 56.754C24.6007 56.7207 24.2674 56.7607 23.974 56.874C23.6874 56.9807 23.4574 57.1474 23.284 57.374C23.1174 57.6007 23.034 57.8707 23.034 58.184H22.594ZM22.654 61.554C22.534 61.554 22.4407 61.5207 22.374 61.454C22.3074 61.3874 22.274 61.294 22.274 61.174V56.464C22.274 56.344 22.3074 56.2507 22.374 56.184C22.4407 56.1174 22.534 56.084 22.654 56.084C22.774 56.084 22.8674 56.1174 22.934 56.184C23.0007 56.2507 23.034 56.344 23.034 56.464V61.174C23.034 61.294 23.0007 61.3874 22.934 61.454C22.8674 61.5207 22.774 61.554 22.654 61.554ZM28.9437 61.604C28.4104 61.604 27.9337 61.484 27.5137 61.244C27.0937 61.004 26.7637 60.674 26.5237 60.254C26.2837 59.834 26.1637 59.3574 26.1637 58.824C26.1637 58.284 26.2837 57.804 26.5237 57.384C26.7637 56.964 27.0937 56.634 27.5137 56.394C27.9337 56.154 28.4104 56.034 28.9437 56.034C29.477 56.034 29.9504 56.154 30.3637 56.394C30.7837 56.634 31.1137 56.964 31.3537 57.384C31.5937 57.804 31.717 58.284 31.7237 58.824C31.7237 59.3574 31.6004 59.834 31.3537 60.254C31.1137 60.674 30.7837 61.004 30.3637 61.244C29.9504 61.484 29.477 61.604 28.9437 61.604ZM28.9437 60.904C29.3304 60.904 29.677 60.814 29.9837 60.634C30.2904 60.454 30.5304 60.2074 30.7037 59.894C30.877 59.5807 30.9637 59.224 30.9637 58.824C30.9637 58.424 30.877 58.0674 30.7037 57.754C30.5304 57.434 30.2904 57.184 29.9837 57.004C29.677 56.824 29.3304 56.734 28.9437 56.734C28.557 56.734 28.2104 56.824 27.9037 57.004C27.597 57.184 27.3537 57.434 27.1737 57.754C27.0004 58.0674 26.9137 58.424 26.9137 58.824C26.9137 59.224 27.0004 59.5807 27.1737 59.894C27.3537 60.2074 27.597 60.454 27.9037 60.634C28.2104 60.814 28.557 60.904 28.9437 60.904ZM36.641 61.554C36.5276 61.554 36.4343 61.5174 36.361 61.444C36.2876 61.3707 36.251 61.2774 36.251 61.164V54.134C36.251 54.0207 36.2876 53.9274 36.361 53.854C36.4343 53.7807 36.5276 53.744 36.641 53.744H41.331C41.4376 53.744 41.5276 53.7807 41.601 53.854C41.681 53.9207 41.721 54.0107 41.721 54.124C41.721 54.224 41.681 54.3107 41.601 54.384C41.5276 54.4574 41.4376 54.494 41.331 54.494H37.031V57.254H40.161C40.2743 57.254 40.3676 57.2907 40.441 57.364C40.5143 57.4374 40.551 57.5274 40.551 57.634C40.551 57.7407 40.5143 57.8307 40.441 57.904C40.3676 57.9774 40.2743 58.014 40.161 58.014H37.031V60.804H41.331C41.4376 60.804 41.5276 60.8407 41.601 60.914C41.681 60.9874 41.721 61.074 41.721 61.174C41.721 61.2874 41.681 61.3807 41.601 61.454C41.5276 61.5207 41.4376 61.554 41.331 61.554H36.641ZM50.4648 61.554C50.3515 61.554 50.2581 61.5207 50.1848 61.454C50.1115 61.3807 50.0748 61.2874 50.0748 61.174V58.294C50.0748 57.8207 49.9515 57.4474 49.7048 57.174C49.4581 56.894 49.1415 56.754 48.7548 56.754C48.3415 56.754 48.0015 56.894 47.7348 57.174C47.4748 57.4474 47.3481 57.814 47.3548 58.274H46.6648C46.6715 57.8274 46.7681 57.434 46.9548 57.094C47.1415 56.754 47.3981 56.4907 47.7248 56.304C48.0515 56.1174 48.4215 56.024 48.8348 56.024C49.2281 56.024 49.5748 56.1174 49.8748 56.304C50.1815 56.4907 50.4181 56.754 50.5848 57.094C50.7581 57.434 50.8448 57.834 50.8448 58.294V61.174C50.8448 61.2874 50.8081 61.3807 50.7348 61.454C50.6681 61.5207 50.5781 61.554 50.4648 61.554ZM43.4648 61.554C43.3448 61.554 43.2481 61.5207 43.1748 61.454C43.1081 61.3807 43.0748 61.2874 43.0748 61.174V56.474C43.0748 56.3607 43.1081 56.2674 43.1748 56.194C43.2481 56.1207 43.3448 56.084 43.4648 56.084C43.5781 56.084 43.6681 56.1207 43.7348 56.194C43.8081 56.2674 43.8448 56.3607 43.8448 56.474V61.174C43.8448 61.2874 43.8081 61.3807 43.7348 61.454C43.6681 61.5207 43.5781 61.554 43.4648 61.554ZM46.9748 61.554C46.8615 61.554 46.7681 61.5207 46.6948 61.454C46.6215 61.3807 46.5848 61.2874 46.5848 61.174V58.294C46.5848 57.8207 46.4615 57.4474 46.2148 57.174C45.9681 56.894 45.6515 56.754 45.2648 56.754C44.8515 56.754 44.5115 56.8907 44.2448 57.164C43.9781 57.4307 43.8448 57.7807 43.8448 58.214H43.2948C43.3081 57.7874 43.4015 57.4107 43.5748 57.084C43.7548 56.7507 43.9981 56.4907 44.3048 56.304C44.6115 56.1174 44.9581 56.024 45.3448 56.024C45.7381 56.024 46.0848 56.1174 46.3848 56.304C46.6915 56.4907 46.9281 56.754 47.0948 57.094C47.2681 57.434 47.3548 57.834 47.3548 58.294V61.174C47.3548 61.2874 47.3181 61.3807 47.2448 61.454C47.1781 61.5207 47.0881 61.554 46.9748 61.554ZM53.0975 61.554C52.9775 61.554 52.8808 61.5207 52.8075 61.454C52.7408 61.3807 52.7075 61.284 52.7075 61.164V56.474C52.7075 56.354 52.7408 56.2607 52.8075 56.194C52.8808 56.1207 52.9775 56.084 53.0975 56.084C53.2108 56.084 53.3008 56.1207 53.3675 56.194C53.4408 56.2607 53.4775 56.354 53.4775 56.474V61.164C53.4775 61.284 53.4408 61.3807 53.3675 61.454C53.3008 61.5207 53.2108 61.554 53.0975 61.554ZM53.0875 55.044C52.9408 55.044 52.8141 54.9907 52.7075 54.884C52.6008 54.7774 52.5475 54.6474 52.5475 54.494C52.5475 54.3274 52.6008 54.1974 52.7075 54.104C52.8208 54.004 52.9508 53.954 53.0975 53.954C53.2375 53.954 53.3608 54.004 53.4675 54.104C53.5808 54.1974 53.6375 54.3274 53.6375 54.494C53.6375 54.6474 53.5841 54.7774 53.4775 54.884C53.3708 54.9907 53.2408 55.044 53.0875 55.044ZM57.3481 61.604C56.9548 61.604 56.5648 61.5374 56.1781 61.404C55.7914 61.2707 55.4781 61.0707 55.2381 60.804C55.1648 60.724 55.1348 60.634 55.1481 60.534C55.1614 60.434 55.2114 60.3474 55.2981 60.274C55.3914 60.2074 55.4881 60.1807 55.5881 60.194C55.6881 60.2074 55.7714 60.2507 55.8381 60.324C55.9981 60.5107 56.2081 60.654 56.4681 60.754C56.7348 60.854 57.0281 60.904 57.3481 60.904C57.8414 60.904 58.1981 60.8207 58.4181 60.654C58.6381 60.4807 58.7514 60.274 58.7581 60.034C58.7581 59.794 58.6448 59.5974 58.4181 59.444C58.1914 59.284 57.8181 59.1607 57.2981 59.074C56.6248 58.9674 56.1314 58.7807 55.8181 58.514C55.5048 58.2474 55.3481 57.9307 55.3481 57.564C55.3481 57.224 55.4381 56.9407 55.6181 56.714C55.7981 56.4874 56.0381 56.3174 56.3381 56.204C56.6381 56.0907 56.9681 56.034 57.3281 56.034C57.7748 56.034 58.1581 56.1107 58.4781 56.264C58.8048 56.4174 59.0681 56.624 59.2681 56.884C59.3348 56.9707 59.3614 57.0607 59.3481 57.154C59.3348 57.2474 59.2814 57.324 59.1881 57.384C59.1081 57.4307 59.0148 57.4474 58.9081 57.434C58.8081 57.414 58.7214 57.364 58.6481 57.284C58.4814 57.0907 58.2881 56.9507 58.0681 56.864C57.8481 56.7707 57.5948 56.724 57.3081 56.724C56.9414 56.724 56.6481 56.8007 56.4281 56.954C56.2081 57.1007 56.0981 57.2874 56.0981 57.514C56.0981 57.6674 56.1381 57.8007 56.2181 57.914C56.3048 58.0274 56.4481 58.1274 56.6481 58.214C56.8548 58.3007 57.1414 58.374 57.5081 58.434C58.0081 58.514 58.4014 58.634 58.6881 58.794C58.9814 58.9474 59.1881 59.1307 59.3081 59.344C59.4348 59.5507 59.4981 59.7774 59.4981 60.024C59.4981 60.3374 59.4048 60.614 59.2181 60.854C59.0381 61.0874 58.7848 61.2707 58.4581 61.404C58.1381 61.5374 57.7681 61.604 57.3481 61.604ZM62.7387 61.604C62.3454 61.604 61.9554 61.5374 61.5687 61.404C61.182 61.2707 60.8687 61.0707 60.6287 60.804C60.5554 60.724 60.5254 60.634 60.5387 60.534C60.552 60.434 60.602 60.3474 60.6887 60.274C60.782 60.2074 60.8787 60.1807 60.9787 60.194C61.0787 60.2074 61.162 60.2507 61.2287 60.324C61.3887 60.5107 61.5987 60.654 61.8587 60.754C62.1254 60.854 62.4187 60.904 62.7387 60.904C63.232 60.904 63.5887 60.8207 63.8087 60.654C64.0287 60.4807 64.142 60.274 64.1487 60.034C64.1487 59.794 64.0354 59.5974 63.8087 59.444C63.582 59.284 63.2087 59.1607 62.6887 59.074C62.0154 58.9674 61.522 58.7807 61.2087 58.514C60.8954 58.2474 60.7387 57.9307 60.7387 57.564C60.7387 57.224 60.8287 56.9407 61.0087 56.714C61.1887 56.4874 61.4287 56.3174 61.7287 56.204C62.0287 56.0907 62.3587 56.034 62.7187 56.034C63.1654 56.034 63.5487 56.1107 63.8687 56.264C64.1954 56.4174 64.4587 56.624 64.6587 56.884C64.7254 56.9707 64.752 57.0607 64.7387 57.154C64.7254 57.2474 64.672 57.324 64.5787 57.384C64.4987 57.4307 64.4054 57.4474 64.2987 57.434C64.1987 57.414 64.112 57.364 64.0387 57.284C63.872 57.0907 63.6787 56.9507 63.4587 56.864C63.2387 56.7707 62.9854 56.724 62.6987 56.724C62.332 56.724 62.0387 56.8007 61.8187 56.954C61.5987 57.1007 61.4887 57.2874 61.4887 57.514C61.4887 57.6674 61.5287 57.8007 61.6087 57.914C61.6954 58.0274 61.8387 58.1274 62.0387 58.214C62.2454 58.3007 62.532 58.374 62.8987 58.434C63.3987 58.514 63.792 58.634 64.0787 58.794C64.372 58.9474 64.5787 59.1307 64.6987 59.344C64.8254 59.5507 64.8887 59.7774 64.8887 60.024C64.8887 60.3374 64.7954 60.614 64.6087 60.854C64.4287 61.0874 64.1754 61.2707 63.8487 61.404C63.5287 61.5374 63.1587 61.604 62.7387 61.604ZM66.7693 61.554C66.6493 61.554 66.5527 61.5207 66.4793 61.454C66.4127 61.3807 66.3793 61.284 66.3793 61.164V56.474C66.3793 56.354 66.4127 56.2607 66.4793 56.194C66.5527 56.1207 66.6493 56.084 66.7693 56.084C66.8827 56.084 66.9727 56.1207 67.0393 56.194C67.1127 56.2607 67.1493 56.354 67.1493 56.474V61.164C67.1493 61.284 67.1127 61.3807 67.0393 61.454C66.9727 61.5207 66.8827 61.554 66.7693 61.554ZM66.7593 55.044C66.6127 55.044 66.486 54.9907 66.3793 54.884C66.2727 54.7774 66.2193 54.6474 66.2193 54.494C66.2193 54.3274 66.2727 54.1974 66.3793 54.104C66.4927 54.004 66.6227 53.954 66.7693 53.954C66.9093 53.954 67.0327 54.004 67.1393 54.104C67.2527 54.1974 67.3093 54.3274 67.3093 54.494C67.3093 54.6474 67.256 54.7774 67.1493 54.884C67.0427 54.9907 66.9127 55.044 66.7593 55.044ZM71.6 61.604C71.0666 61.604 70.59 61.484 70.17 61.244C69.75 61.004 69.42 60.674 69.18 60.254C68.94 59.834 68.82 59.3574 68.82 58.824C68.82 58.284 68.94 57.804 69.18 57.384C69.42 56.964 69.75 56.634 70.17 56.394C70.59 56.154 71.0666 56.034 71.6 56.034C72.1333 56.034 72.6066 56.154 73.02 56.394C73.44 56.634 73.77 56.964 74.01 57.384C74.25 57.804 74.3733 58.284 74.38 58.824C74.38 59.3574 74.2566 59.834 74.01 60.254C73.77 60.674 73.44 61.004 73.02 61.244C72.6066 61.484 72.1333 61.604 71.6 61.604ZM71.6 60.904C71.9866 60.904 72.3333 60.814 72.64 60.634C72.9466 60.454 73.1866 60.2074 73.36 59.894C73.5333 59.5807 73.62 59.224 73.62 58.824C73.62 58.424 73.5333 58.0674 73.36 57.754C73.1866 57.434 72.9466 57.184 72.64 57.004C72.3333 56.824 71.9866 56.734 71.6 56.734C71.2133 56.734 70.8666 56.824 70.56 57.004C70.2533 57.184 70.01 57.434 69.83 57.754C69.6566 58.0674 69.57 58.424 69.57 58.824C69.57 59.224 69.6566 59.5807 69.83 59.894C70.01 60.2074 70.2533 60.454 70.56 60.634C70.8666 60.814 71.2133 60.904 71.6 60.904ZM80.5675 61.554C80.4542 61.554 80.3609 61.5174 80.2875 61.444C80.2142 61.3707 80.1775 61.2807 80.1775 61.174V58.574C80.1775 58.1607 80.0975 57.8207 79.9375 57.554C79.7842 57.2874 79.5709 57.0874 79.2975 56.954C79.0309 56.8207 78.7275 56.754 78.3875 56.754C78.0609 56.754 77.7642 56.8174 77.4975 56.944C77.2375 57.0707 77.0309 57.244 76.8775 57.464C76.7242 57.684 76.6475 57.934 76.6475 58.214H76.0975C76.1109 57.794 76.2242 57.4207 76.4375 57.094C76.6509 56.7607 76.9342 56.5007 77.2875 56.314C77.6409 56.1207 78.0342 56.024 78.4675 56.024C78.9409 56.024 79.3642 56.124 79.7375 56.324C80.1109 56.5174 80.4042 56.804 80.6175 57.184C80.8375 57.564 80.9475 58.0274 80.9475 58.574V61.174C80.9475 61.2807 80.9109 61.3707 80.8375 61.444C80.7642 61.5174 80.6742 61.554 80.5675 61.554ZM76.2675 61.554C76.1475 61.554 76.0509 61.5207 75.9775 61.454C75.9109 61.3807 75.8775 61.2874 75.8775 61.174V56.474C75.8775 56.354 75.9109 56.2607 75.9775 56.194C76.0509 56.1207 76.1475 56.084 76.2675 56.084C76.3809 56.084 76.4709 56.1207 76.5375 56.194C76.6109 56.2607 76.6475 56.354 76.6475 56.474V61.174C76.6475 61.2874 76.6109 61.3807 76.5375 61.454C76.4709 61.5207 76.3809 61.554 76.2675 61.554ZM85.2448 61.554C85.0915 61.554 84.9815 61.4907 84.9148 61.364C84.8481 61.2374 84.8415 61.114 84.8948 60.994L87.8348 54.014C87.9081 53.834 88.0348 53.744 88.2148 53.744C88.3881 53.744 88.5115 53.834 88.5848 54.014L91.5348 61.004C91.5948 61.1307 91.5848 61.254 91.5048 61.374C91.4315 61.494 91.3248 61.554 91.1848 61.554C91.1048 61.554 91.0315 61.534 90.9648 61.494C90.9048 61.454 90.8548 61.394 90.8148 61.314L88.0648 54.644H88.3748L85.6048 61.314C85.5715 61.394 85.5215 61.454 85.4548 61.494C85.3948 61.534 85.3248 61.554 85.2448 61.554ZM85.9048 59.694L86.2048 59.024H90.2648L90.5648 59.694H85.9048ZM94.9861 61.614C94.5127 61.614 94.0894 61.5174 93.7161 61.324C93.3427 61.124 93.0461 60.834 92.8261 60.454C92.6127 60.074 92.5061 59.6107 92.5061 59.064V56.464C92.5061 56.3574 92.5427 56.2674 92.6161 56.194C92.6894 56.1207 92.7794 56.084 92.8861 56.084C92.9994 56.084 93.0927 56.1207 93.1661 56.194C93.2394 56.2674 93.2761 56.3574 93.2761 56.464V59.064C93.2761 59.4774 93.3527 59.8174 93.5061 60.084C93.6661 60.3507 93.8794 60.5507 94.1461 60.684C94.4194 60.8174 94.7261 60.884 95.0661 60.884C95.3927 60.884 95.6861 60.8207 95.9461 60.694C96.2127 60.5674 96.4227 60.394 96.5761 60.174C96.7294 59.954 96.8061 59.704 96.8061 59.424H97.3561C97.3361 59.844 97.2194 60.2207 97.0061 60.554C96.7994 60.8807 96.5194 61.1407 96.1661 61.334C95.8127 61.5207 95.4194 61.614 94.9861 61.614ZM97.1861 61.554C97.0727 61.554 96.9794 61.5207 96.9061 61.454C96.8394 61.3807 96.8061 61.284 96.8061 61.164V56.464C96.8061 56.3507 96.8394 56.2607 96.9061 56.194C96.9794 56.1207 97.0727 56.084 97.1861 56.084C97.2994 56.084 97.3927 56.1207 97.4661 56.194C97.5394 56.2607 97.5761 56.3507 97.5761 56.464V61.164C97.5761 61.284 97.5394 61.3807 97.4661 61.454C97.3927 61.5207 97.2994 61.554 97.1861 61.554ZM101.514 61.554C101.16 61.554 100.844 61.4707 100.564 61.304C100.29 61.1374 100.074 60.9107 99.9136 60.624C99.7536 60.3307 99.6736 59.9974 99.6736 59.624V54.734C99.6736 54.6207 99.707 54.5274 99.7736 54.454C99.847 54.3807 99.9403 54.344 100.054 54.344C100.167 54.344 100.26 54.3807 100.334 54.454C100.407 54.5274 100.444 54.6207 100.444 54.734V59.624C100.444 59.964 100.544 60.244 100.744 60.464C100.944 60.6774 101.2 60.784 101.514 60.784H101.784C101.89 60.784 101.977 60.8207 102.044 60.894C102.11 60.9674 102.144 61.0607 102.144 61.174C102.144 61.2874 102.104 61.3807 102.024 61.454C101.944 61.5207 101.844 61.554 101.724 61.554H101.514ZM99.0236 56.954C98.9236 56.954 98.8403 56.924 98.7736 56.864C98.707 56.7974 98.6736 56.7174 98.6736 56.624C98.6736 56.524 98.707 56.444 98.7736 56.384C98.8403 56.3174 98.9236 56.284 99.0236 56.284H101.574C101.674 56.284 101.757 56.3174 101.824 56.384C101.89 56.444 101.924 56.524 101.924 56.624C101.924 56.7174 101.89 56.7974 101.824 56.864C101.757 56.924 101.674 56.954 101.574 56.954H99.0236ZM105.887 61.604C105.354 61.604 104.877 61.484 104.457 61.244C104.037 61.004 103.707 60.674 103.467 60.254C103.227 59.834 103.107 59.3574 103.107 58.824C103.107 58.284 103.227 57.804 103.467 57.384C103.707 56.964 104.037 56.634 104.457 56.394C104.877 56.154 105.354 56.034 105.887 56.034C106.42 56.034 106.894 56.154 107.307 56.394C107.727 56.634 108.057 56.964 108.297 57.384C108.537 57.804 108.66 58.284 108.667 58.824C108.667 59.3574 108.544 59.834 108.297 60.254C108.057 60.674 107.727 61.004 107.307 61.244C106.894 61.484 106.42 61.604 105.887 61.604ZM105.887 60.904C106.274 60.904 106.62 60.814 106.927 60.634C107.234 60.454 107.474 60.2074 107.647 59.894C107.82 59.5807 107.907 59.224 107.907 58.824C107.907 58.424 107.82 58.0674 107.647 57.754C107.474 57.434 107.234 57.184 106.927 57.004C106.62 56.824 106.274 56.734 105.887 56.734C105.5 56.734 105.154 56.824 104.847 57.004C104.54 57.184 104.297 57.434 104.117 57.754C103.944 58.0674 103.857 58.424 103.857 58.824C103.857 59.224 103.944 59.5807 104.117 59.894C104.297 60.2074 104.54 60.454 104.847 60.634C105.154 60.814 105.5 60.904 105.887 60.904ZM117.555 61.554C117.441 61.554 117.348 61.5207 117.275 61.454C117.201 61.3807 117.165 61.2874 117.165 61.174V58.294C117.165 57.8207 117.041 57.4474 116.795 57.174C116.548 56.894 116.231 56.754 115.845 56.754C115.431 56.754 115.091 56.894 114.825 57.174C114.565 57.4474 114.438 57.814 114.445 58.274H113.755C113.761 57.8274 113.858 57.434 114.045 57.094C114.231 56.754 114.488 56.4907 114.815 56.304C115.141 56.1174 115.511 56.024 115.925 56.024C116.318 56.024 116.665 56.1174 116.965 56.304C117.271 56.4907 117.508 56.754 117.675 57.094C117.848 57.434 117.935 57.834 117.935 58.294V61.174C117.935 61.2874 117.898 61.3807 117.825 61.454C117.758 61.5207 117.668 61.554 117.555 61.554ZM110.555 61.554C110.435 61.554 110.338 61.5207 110.265 61.454C110.198 61.3807 110.165 61.2874 110.165 61.174V56.474C110.165 56.3607 110.198 56.2674 110.265 56.194C110.338 56.1207 110.435 56.084 110.555 56.084C110.668 56.084 110.758 56.1207 110.825 56.194C110.898 56.2674 110.935 56.3607 110.935 56.474V61.174C110.935 61.2874 110.898 61.3807 110.825 61.454C110.758 61.5207 110.668 61.554 110.555 61.554ZM114.065 61.554C113.951 61.554 113.858 61.5207 113.785 61.454C113.711 61.3807 113.675 61.2874 113.675 61.174V58.294C113.675 57.8207 113.551 57.4474 113.305 57.174C113.058 56.894 112.741 56.754 112.355 56.754C111.941 56.754 111.601 56.8907 111.335 57.164C111.068 57.4307 110.935 57.7807 110.935 58.214H110.385C110.398 57.7874 110.491 57.4107 110.665 57.084C110.845 56.7507 111.088 56.4907 111.395 56.304C111.701 56.1174 112.048 56.024 112.435 56.024C112.828 56.024 113.175 56.1174 113.475 56.304C113.781 56.4907 114.018 56.754 114.185 57.094C114.358 57.434 114.445 57.834 114.445 58.294V61.174C114.445 61.2874 114.408 61.3807 114.335 61.454C114.268 61.5207 114.178 61.554 114.065 61.554ZM122.127 61.604C121.594 61.604 121.117 61.484 120.697 61.244C120.277 61.004 119.947 60.674 119.707 60.254C119.467 59.834 119.347 59.3574 119.347 58.824C119.347 58.284 119.467 57.804 119.707 57.384C119.947 56.964 120.277 56.634 120.697 56.394C121.117 56.154 121.594 56.034 122.127 56.034C122.661 56.034 123.134 56.154 123.547 56.394C123.967 56.634 124.297 56.964 124.537 57.384C124.777 57.804 124.901 58.284 124.907 58.824C124.907 59.3574 124.784 59.834 124.537 60.254C124.297 60.674 123.967 61.004 123.547 61.244C123.134 61.484 122.661 61.604 122.127 61.604ZM122.127 60.904C122.514 60.904 122.861 60.814 123.167 60.634C123.474 60.454 123.714 60.2074 123.887 59.894C124.061 59.5807 124.147 59.224 124.147 58.824C124.147 58.424 124.061 58.0674 123.887 57.754C123.714 57.434 123.474 57.184 123.167 57.004C122.861 56.824 122.514 56.734 122.127 56.734C121.741 56.734 121.394 56.824 121.087 57.004C120.781 57.184 120.537 57.434 120.357 57.754C120.184 58.0674 120.097 58.424 120.097 58.824C120.097 59.224 120.184 59.5807 120.357 59.894C120.537 60.2074 120.781 60.454 121.087 60.634C121.394 60.814 121.741 60.904 122.127 60.904ZM129.175 61.604C128.655 61.604 128.185 61.484 127.765 61.244C127.352 61.004 127.022 60.6774 126.775 60.264C126.535 59.844 126.412 59.374 126.405 58.854V54.134C126.405 54.014 126.438 53.9207 126.505 53.854C126.578 53.7807 126.675 53.744 126.795 53.744C126.908 53.744 126.998 53.7807 127.065 53.854C127.138 53.9207 127.175 54.014 127.175 54.134V57.074C127.395 56.7607 127.685 56.5107 128.045 56.324C128.412 56.1307 128.818 56.034 129.265 56.034C129.778 56.034 130.238 56.1574 130.645 56.404C131.052 56.644 131.372 56.974 131.605 57.394C131.845 57.814 131.965 58.2874 131.965 58.814C131.965 59.3474 131.842 59.824 131.595 60.244C131.355 60.664 131.025 60.9974 130.605 61.244C130.185 61.484 129.708 61.604 129.175 61.604ZM129.175 60.904C129.562 60.904 129.908 60.814 130.215 60.634C130.522 60.4474 130.762 60.1974 130.935 59.884C131.115 59.5707 131.205 59.214 131.205 58.814C131.205 58.4207 131.115 58.0674 130.935 57.754C130.762 57.434 130.522 57.184 130.215 57.004C129.908 56.824 129.562 56.734 129.175 56.734C128.795 56.734 128.452 56.824 128.145 57.004C127.838 57.184 127.598 57.434 127.425 57.754C127.252 58.0674 127.165 58.4207 127.165 58.814C127.165 59.214 127.252 59.5707 127.425 59.884C127.598 60.1974 127.838 60.4474 128.145 60.634C128.452 60.814 128.795 60.904 129.175 60.904ZM134.025 61.554C133.905 61.554 133.809 61.5207 133.735 61.454C133.669 61.3807 133.635 61.284 133.635 61.164V56.474C133.635 56.354 133.669 56.2607 133.735 56.194C133.809 56.1207 133.905 56.084 134.025 56.084C134.139 56.084 134.229 56.1207 134.295 56.194C134.369 56.2607 134.405 56.354 134.405 56.474V61.164C134.405 61.284 134.369 61.3807 134.295 61.454C134.229 61.5207 134.139 61.554 134.025 61.554ZM134.015 55.044C133.869 55.044 133.742 54.9907 133.635 54.884C133.529 54.7774 133.475 54.6474 133.475 54.494C133.475 54.3274 133.529 54.1974 133.635 54.104C133.749 54.004 133.879 53.954 134.025 53.954C134.165 53.954 134.289 54.004 134.395 54.104C134.509 54.1974 134.565 54.3274 134.565 54.494C134.565 54.6474 134.512 54.7774 134.405 54.884C134.299 54.9907 134.169 55.044 134.015 55.044ZM137.546 61.554C137.279 61.554 137.039 61.4807 136.826 61.334C136.619 61.1874 136.456 60.984 136.336 60.724C136.222 60.464 136.166 60.164 136.166 59.824V54.124C136.166 54.0107 136.199 53.9207 136.266 53.854C136.339 53.7807 136.432 53.744 136.546 53.744C136.659 53.744 136.749 53.7807 136.816 53.854C136.889 53.9207 136.926 54.0107 136.926 54.124V59.824C136.926 60.1107 136.982 60.344 137.096 60.524C137.216 60.704 137.366 60.794 137.546 60.794H137.796C137.896 60.794 137.976 60.8307 138.036 60.904C138.096 60.9707 138.126 61.0607 138.126 61.174C138.126 61.2874 138.082 61.3807 137.996 61.454C137.916 61.5207 137.809 61.554 137.676 61.554H137.546ZM141.365 61.604C140.825 61.604 140.345 61.4874 139.925 61.254C139.512 61.014 139.185 60.684 138.945 60.264C138.712 59.844 138.595 59.364 138.595 58.824C138.595 58.2774 138.705 57.7974 138.925 57.384C139.152 56.964 139.462 56.634 139.855 56.394C140.249 56.154 140.702 56.034 141.215 56.034C141.722 56.034 142.162 56.1507 142.535 56.384C142.915 56.6107 143.209 56.9274 143.415 57.334C143.622 57.7407 143.725 58.204 143.725 58.724C143.725 58.8307 143.692 58.9174 143.625 58.984C143.559 59.044 143.472 59.074 143.365 59.074H139.115V58.434H143.445L143.015 58.744C143.022 58.3574 142.952 58.0107 142.805 57.704C142.659 57.3974 142.449 57.1574 142.175 56.984C141.909 56.8107 141.589 56.724 141.215 56.724C140.835 56.724 140.502 56.814 140.215 56.994C139.929 57.174 139.705 57.424 139.545 57.744C139.392 58.0574 139.315 58.4174 139.315 58.824C139.315 59.2307 139.402 59.5907 139.575 59.904C139.755 60.2174 139.999 60.464 140.305 60.644C140.612 60.824 140.965 60.914 141.365 60.914C141.605 60.914 141.845 60.874 142.085 60.794C142.332 60.7074 142.529 60.6007 142.675 60.474C142.749 60.414 142.832 60.384 142.925 60.384C143.019 60.3774 143.099 60.4007 143.165 60.454C143.252 60.534 143.295 60.6207 143.295 60.714C143.302 60.8074 143.265 60.8874 143.185 60.954C142.965 61.1407 142.685 61.2974 142.345 61.424C142.005 61.544 141.679 61.604 141.365 61.604ZM147.628 61.554C147.474 61.554 147.364 61.4907 147.298 61.364C147.231 61.2374 147.224 61.114 147.278 60.994L150.218 54.014C150.291 53.834 150.418 53.744 150.598 53.744C150.771 53.744 150.894 53.834 150.968 54.014L153.918 61.004C153.978 61.1307 153.968 61.254 153.888 61.374C153.814 61.494 153.708 61.554 153.568 61.554C153.488 61.554 153.414 61.534 153.348 61.494C153.288 61.454 153.238 61.394 153.198 61.314L150.448 54.644H150.758L147.988 61.314C147.954 61.394 147.904 61.454 147.838 61.494C147.778 61.534 147.708 61.554 147.628 61.554ZM148.288 59.694L148.588 59.024H152.648L152.948 59.694H148.288ZM155.379 63.894C155.259 63.894 155.162 63.8574 155.089 63.784C155.022 63.7174 154.989 63.624 154.989 63.504V58.784C154.996 58.264 155.119 57.7974 155.359 57.384C155.606 56.964 155.936 56.634 156.349 56.394C156.769 56.154 157.239 56.034 157.759 56.034C158.292 56.034 158.769 56.1574 159.189 56.404C159.609 56.644 159.939 56.974 160.179 57.394C160.426 57.814 160.549 58.2907 160.549 58.824C160.549 59.3507 160.429 59.824 160.189 60.244C159.956 60.664 159.636 60.9974 159.229 61.244C158.822 61.484 158.362 61.604 157.849 61.604C157.402 61.604 156.996 61.5107 156.629 61.324C156.269 61.1307 155.979 60.8774 155.759 60.564V63.504C155.759 63.624 155.722 63.7174 155.649 63.784C155.582 63.8574 155.492 63.894 155.379 63.894ZM157.759 60.904C158.146 60.904 158.492 60.814 158.799 60.634C159.106 60.454 159.346 60.2074 159.519 59.894C159.699 59.574 159.789 59.2174 159.789 58.824C159.789 58.424 159.699 58.0674 159.519 57.754C159.346 57.4407 159.106 57.194 158.799 57.014C158.492 56.8274 158.146 56.734 157.759 56.734C157.379 56.734 157.036 56.8274 156.729 57.014C156.422 57.194 156.182 57.4407 156.009 57.754C155.836 58.0674 155.749 58.424 155.749 58.824C155.749 59.2174 155.836 59.574 156.009 59.894C156.182 60.2074 156.422 60.454 156.729 60.634C157.036 60.814 157.379 60.904 157.759 60.904ZM162.449 63.894C162.329 63.894 162.233 63.8574 162.159 63.784C162.093 63.7174 162.059 63.624 162.059 63.504V58.784C162.066 58.264 162.189 57.7974 162.429 57.384C162.676 56.964 163.006 56.634 163.419 56.394C163.839 56.154 164.309 56.034 164.829 56.034C165.363 56.034 165.839 56.1574 166.259 56.404C166.679 56.644 167.009 56.974 167.249 57.394C167.496 57.814 167.619 58.2907 167.619 58.824C167.619 59.3507 167.499 59.824 167.259 60.244C167.026 60.664 166.706 60.9974 166.299 61.244C165.893 61.484 165.433 61.604 164.919 61.604C164.473 61.604 164.066 61.5107 163.699 61.324C163.339 61.1307 163.049 60.8774 162.829 60.564V63.504C162.829 63.624 162.793 63.7174 162.719 63.784C162.653 63.8574 162.563 63.894 162.449 63.894ZM164.829 60.904C165.216 60.904 165.563 60.814 165.869 60.634C166.176 60.454 166.416 60.2074 166.589 59.894C166.769 59.574 166.859 59.2174 166.859 58.824C166.859 58.424 166.769 58.0674 166.589 57.754C166.416 57.4407 166.176 57.194 165.869 57.014C165.563 56.8274 165.216 56.734 164.829 56.734C164.449 56.734 164.106 56.8274 163.799 57.014C163.493 57.194 163.253 57.4407 163.079 57.754C162.906 58.0674 162.819 58.424 162.819 58.824C162.819 59.2174 162.906 59.574 163.079 59.894C163.253 60.2074 163.493 60.454 163.799 60.634C164.106 60.814 164.449 60.904 164.829 60.904ZM170.309 61.554C170.043 61.554 169.803 61.4807 169.589 61.334C169.383 61.1874 169.219 60.984 169.099 60.724C168.986 60.464 168.929 60.164 168.929 59.824V54.124C168.929 54.0107 168.963 53.9207 169.029 53.854C169.103 53.7807 169.196 53.744 169.309 53.744C169.423 53.744 169.513 53.7807 169.579 53.854C169.653 53.9207 169.689 54.0107 169.689 54.124V59.824C169.689 60.1107 169.746 60.344 169.859 60.524C169.979 60.704 170.129 60.794 170.309 60.794H170.559C170.659 60.794 170.739 60.8307 170.799 60.904C170.859 60.9707 170.889 61.0607 170.889 61.174C170.889 61.2874 170.846 61.3807 170.759 61.454C170.679 61.5207 170.573 61.554 170.439 61.554H170.309ZM172.502 61.554C172.382 61.554 172.285 61.5207 172.212 61.454C172.145 61.3807 172.112 61.284 172.112 61.164V56.474C172.112 56.354 172.145 56.2607 172.212 56.194C172.285 56.1207 172.382 56.084 172.502 56.084C172.615 56.084 172.705 56.1207 172.772 56.194C172.845 56.2607 172.882 56.354 172.882 56.474V61.164C172.882 61.284 172.845 61.3807 172.772 61.454C172.705 61.5207 172.615 61.554 172.502 61.554ZM172.492 55.044C172.345 55.044 172.218 54.9907 172.112 54.884C172.005 54.7774 171.952 54.6474 171.952 54.494C171.952 54.3274 172.005 54.1974 172.112 54.104C172.225 54.004 172.355 53.954 172.502 53.954C172.642 53.954 172.765 54.004 172.872 54.104C172.985 54.1974 173.042 54.3274 173.042 54.494C173.042 54.6474 172.988 54.7774 172.882 54.884C172.775 54.9907 172.645 55.044 172.492 55.044ZM177.282 61.604C176.756 61.604 176.286 61.484 175.872 61.244C175.466 60.9974 175.142 60.664 174.902 60.244C174.669 59.824 174.552 59.3507 174.552 58.824C174.552 58.2907 174.666 57.814 174.892 57.394C175.119 56.974 175.429 56.644 175.822 56.404C176.216 56.1574 176.669 56.034 177.182 56.034C177.589 56.034 177.962 56.114 178.302 56.274C178.649 56.434 178.952 56.674 179.212 56.994C179.286 57.074 179.312 57.1607 179.292 57.254C179.272 57.3407 179.216 57.4174 179.122 57.484C179.049 57.5374 178.966 57.5574 178.872 57.544C178.786 57.524 178.709 57.474 178.642 57.394C178.256 56.954 177.769 56.734 177.182 56.734C176.809 56.734 176.479 56.824 176.192 57.004C175.912 57.184 175.692 57.4307 175.532 57.744C175.379 58.0574 175.302 58.4174 175.302 58.824C175.302 59.224 175.386 59.5807 175.552 59.894C175.719 60.2074 175.952 60.454 176.252 60.634C176.552 60.814 176.896 60.904 177.282 60.904C177.542 60.904 177.779 60.8707 177.992 60.804C178.212 60.7307 178.406 60.6207 178.572 60.474C178.652 60.4074 178.736 60.3707 178.822 60.364C178.909 60.3574 178.989 60.384 179.062 60.444C179.142 60.5174 179.186 60.6007 179.192 60.694C179.206 60.7874 179.176 60.8674 179.102 60.934C178.616 61.3807 178.009 61.604 177.282 61.604ZM183.2 61.604C182.686 61.604 182.226 61.484 181.82 61.244C181.413 60.9974 181.09 60.664 180.85 60.244C180.616 59.824 180.5 59.3507 180.5 58.824C180.5 58.2907 180.62 57.814 180.86 57.394C181.106 56.974 181.44 56.644 181.86 56.404C182.28 56.1574 182.753 56.034 183.28 56.034C183.806 56.034 184.276 56.1574 184.69 56.404C185.11 56.644 185.44 56.974 185.68 57.394C185.926 57.814 186.053 58.2907 186.06 58.824L185.75 59.064C185.75 59.544 185.636 59.9774 185.41 60.364C185.19 60.744 184.886 61.0474 184.5 61.274C184.12 61.494 183.686 61.604 183.2 61.604ZM183.28 60.904C183.666 60.904 184.01 60.814 184.31 60.634C184.616 60.454 184.856 60.2074 185.03 59.894C185.21 59.574 185.3 59.2174 185.3 58.824C185.3 58.424 185.21 58.0674 185.03 57.754C184.856 57.4407 184.616 57.194 184.31 57.014C184.01 56.8274 183.666 56.734 183.28 56.734C182.9 56.734 182.556 56.8274 182.25 57.014C181.943 57.194 181.7 57.4407 181.52 57.754C181.34 58.0674 181.25 58.424 181.25 58.824C181.25 59.2174 181.34 59.574 181.52 59.894C181.7 60.2074 181.943 60.454 182.25 60.634C182.556 60.814 182.9 60.904 183.28 60.904ZM185.67 61.554C185.556 61.554 185.463 61.5207 185.39 61.454C185.316 61.3807 185.28 61.2874 185.28 61.174V59.464L185.47 58.674L186.06 58.824V61.174C186.06 61.2874 186.023 61.3807 185.95 61.454C185.876 61.5207 185.783 61.554 185.67 61.554ZM189.697 61.554C189.344 61.554 189.027 61.4707 188.747 61.304C188.474 61.1374 188.257 60.9107 188.097 60.624C187.937 60.3307 187.857 59.9974 187.857 59.624V54.734C187.857 54.6207 187.891 54.5274 187.957 54.454C188.031 54.3807 188.124 54.344 188.237 54.344C188.351 54.344 188.444 54.3807 188.517 54.454C188.591 54.5274 188.627 54.6207 188.627 54.734V59.624C188.627 59.964 188.727 60.244 188.927 60.464C189.127 60.6774 189.384 60.784 189.697 60.784H189.967C190.074 60.784 190.161 60.8207 190.227 60.894C190.294 60.9674 190.327 61.0607 190.327 61.174C190.327 61.2874 190.287 61.3807 190.207 61.454C190.127 61.5207 190.027 61.554 189.907 61.554H189.697ZM187.207 56.954C187.107 56.954 187.024 56.924 186.957 56.864C186.891 56.7974 186.857 56.7174 186.857 56.624C186.857 56.524 186.891 56.444 186.957 56.384C187.024 56.3174 187.107 56.284 187.207 56.284H189.757C189.857 56.284 189.941 56.3174 190.007 56.384C190.074 56.444 190.107 56.524 190.107 56.624C190.107 56.7174 190.074 56.7974 190.007 56.864C189.941 56.924 189.857 56.954 189.757 56.954H187.207ZM192.131 61.554C192.011 61.554 191.914 61.5207 191.841 61.454C191.774 61.3807 191.741 61.284 191.741 61.164V56.474C191.741 56.354 191.774 56.2607 191.841 56.194C191.914 56.1207 192.011 56.084 192.131 56.084C192.244 56.084 192.334 56.1207 192.401 56.194C192.474 56.2607 192.511 56.354 192.511 56.474V61.164C192.511 61.284 192.474 61.3807 192.401 61.454C192.334 61.5207 192.244 61.554 192.131 61.554ZM192.121 55.044C191.974 55.044 191.847 54.9907 191.741 54.884C191.634 54.7774 191.581 54.6474 191.581 54.494C191.581 54.3274 191.634 54.1974 191.741 54.104C191.854 54.004 191.984 53.954 192.131 53.954C192.271 53.954 192.394 54.004 192.501 54.104C192.614 54.1974 192.671 54.3274 192.671 54.494C192.671 54.6474 192.617 54.7774 192.511 54.884C192.404 54.9907 192.274 55.044 192.121 55.044ZM196.961 61.604C196.428 61.604 195.951 61.484 195.531 61.244C195.111 61.004 194.781 60.674 194.541 60.254C194.301 59.834 194.181 59.3574 194.181 58.824C194.181 58.284 194.301 57.804 194.541 57.384C194.781 56.964 195.111 56.634 195.531 56.394C195.951 56.154 196.428 56.034 196.961 56.034C197.495 56.034 197.968 56.154 198.381 56.394C198.801 56.634 199.131 56.964 199.371 57.384C199.611 57.804 199.735 58.284 199.741 58.824C199.741 59.3574 199.618 59.834 199.371 60.254C199.131 60.674 198.801 61.004 198.381 61.244C197.968 61.484 197.495 61.604 196.961 61.604ZM196.961 60.904C197.348 60.904 197.695 60.814 198.001 60.634C198.308 60.454 198.548 60.2074 198.721 59.894C198.895 59.5807 198.981 59.224 198.981 58.824C198.981 58.424 198.895 58.0674 198.721 57.754C198.548 57.434 198.308 57.184 198.001 57.004C197.695 56.824 197.348 56.734 196.961 56.734C196.575 56.734 196.228 56.824 195.921 57.004C195.615 57.184 195.371 57.434 195.191 57.754C195.018 58.0674 194.931 58.424 194.931 58.824C194.931 59.224 195.018 59.5807 195.191 59.894C195.371 60.2074 195.615 60.454 195.921 60.634C196.228 60.814 196.575 60.904 196.961 60.904ZM205.929 61.554C205.816 61.554 205.722 61.5174 205.649 61.444C205.576 61.3707 205.539 61.2807 205.539 61.174V58.574C205.539 58.1607 205.459 57.8207 205.299 57.554C205.146 57.2874 204.932 57.0874 204.659 56.954C204.392 56.8207 204.089 56.754 203.749 56.754C203.422 56.754 203.126 56.8174 202.859 56.944C202.599 57.0707 202.392 57.244 202.239 57.464C202.086 57.684 202.009 57.934 202.009 58.214H201.459C201.472 57.794 201.586 57.4207 201.799 57.094C202.012 56.7607 202.296 56.5007 202.649 56.314C203.002 56.1207 203.396 56.024 203.829 56.024C204.302 56.024 204.726 56.124 205.099 56.324C205.472 56.5174 205.766 56.804 205.979 57.184C206.199 57.564 206.309 58.0274 206.309 58.574V61.174C206.309 61.2807 206.272 61.3707 206.199 61.444C206.126 61.5174 206.036 61.554 205.929 61.554ZM201.629 61.554C201.509 61.554 201.412 61.5207 201.339 61.454C201.272 61.3807 201.239 61.2874 201.239 61.174V56.474C201.239 56.354 201.272 56.2607 201.339 56.194C201.412 56.1207 201.509 56.084 201.629 56.084C201.742 56.084 201.832 56.1207 201.899 56.194C201.972 56.2607 202.009 56.354 202.009 56.474V61.174C202.009 61.2874 201.972 61.3807 201.899 61.454C201.832 61.5207 201.742 61.554 201.629 61.554Z" fill="#0B1A50"/>
<path d="M54.122 19.8749L53.0874 16.6857L51.253 11.0304C49.6781 6.17635 45.9217 3.04056 41.6812 3.04056H29.9914C25.7518 3.04056 21.9945 6.17635 20.4196 11.0304L18.5851 16.6857L17.5505 19.8749C15.3304 20.9156 13.7454 23.5441 13.7454 26.647V32.0946C13.7454 33.9241 14.3124 35.5754 15.2181 36.8533V42.9899C15.2181 44.9953 16.5371 46.6216 18.1635 46.6216H21.109C22.7354 46.6216 24.0545 44.9953 24.0545 42.9899V39.3581H47.6181V42.9899C47.6181 44.9953 48.9371 46.6216 50.5635 46.6216H53.509C55.1354 46.6216 56.4545 44.9953 56.4545 42.9899V36.8533C57.3602 35.5766 57.9272 33.9252 57.9272 32.0946V26.647C57.9272 23.5441 56.3422 20.9156 54.122 19.8749ZM25.8889 13.7281C26.5599 11.6603 28.1845 10.3041 29.9914 10.3041H41.6812C43.488 10.3041 45.1126 11.6603 45.7836 13.7281L47.6181 19.3835H24.0545L25.8889 13.7281ZM21.109 32.0719C19.3417 32.0719 18.1635 30.6238 18.1635 28.4515C18.1635 26.2793 19.3417 24.8311 21.109 24.8311C22.8763 24.8311 25.5272 28.0895 25.5272 30.2617C25.5272 32.434 22.8763 32.0719 21.109 32.0719ZM50.5635 32.0719C48.7963 32.0719 46.1454 32.434 46.1454 30.2617C46.1454 28.0895 48.7963 24.8311 50.5635 24.8311C52.3308 24.8311 53.509 26.2793 53.509 28.4515C53.509 30.6238 52.3308 32.0719 50.5635 32.0719Z" fill="#0B1A50"/>
</svg>
